# AST/ASF file generated using VICON BodyLanguage
# -----------------------------------------------
:version 1.10
:name VICON
:units
  mass 1.0
  length 0.45
  angle deg
:documentation
   .ast/.asf automatically generated from VICON data using
   VICON BodyBuilder and BodyLanguage model FoxedUp or BRILLIANT.MOD
:root
   order TX TY TZ RX RY RZ
   axis XYZ
   position 0 0 0  
   orientation 0 0 0 
:bonedata
  begin
     id 1 
     name lhipjoint
     direction 0.660183 -0.676772 0.325788 
     length 2.75133 
     axis 0 0 0  XYZ
  end
  begin
     id 2 
     name lfemur
     direction 0.34202 -0.939693 0  
     length 7.70317  
     axis 0 0 20  XYZ
    dof rx ry rz
    limits (-160.0 20.0)
           (-70.0 70.0)
           (-60.0 70.0)
  end
  begin
     id 3 
     name ltibia
     direction 0.342105 -0.939662 0   
     length 7.18701   
     axis 0 0 20   XYZ
    dof rx
    limits (-10.0 170.0)
  end
  begin
     id 4 
     name lfoot
     direction 0.14163 -0.389126 0.910232   
     length 2.41719   
     axis -90 7.62852e-016 20   XYZ
    dof rx rz
    limits (-45.0 90.0)
           (-70.0 20.0)
  end
  begin
     id 5 
     name ltoes
     direction 1.53533e-011 -4.21926e-011 1   
     length 1.18611   
     axis -90 7.62852e-016 20   XYZ
    dof rx
    limits (-90.0 20.0)
  end
  begin
     id 6 
     name rhipjoint
     direction -0.6658 -0.67229 0.323631   
     length 2.76968  
     axis 0 0 0  XYZ 
  end
  begin
     id 7 
     name rfemur
     direction -0.34202 -0.939693 0   
     length 7.92547   
     axis 0 0 -20   XYZ
    dof rx ry rz
    limits (-160.0 20.0)
           (-70.0 70.0)
           (-70.0 60.0)
  end
  begin
     id 8 
     name rtibia
     direction -0.342022 -0.939692 0   
     length 7.22641   
     axis 0 0 -20   XYZ
    dof rx
    limits (-10.0 170.0)
 end
 begin
     id 9 
     name rfoot
     direction -0.105675 -0.29034 0.951071   
     length 2.48149  
     axis -90 -7.62852e-016 -20   XYZ
    dof rx rz
    limits (-45.0 90.0)
           (-20.0 70.0)
  end
  begin
     id 10 
     name rtoes
     direction -1.5349e-011 -4.21859e-011 1   
     length 1.23343   
     axis -90 -7.62852e-016 -20   XYZ
    dof rx
    limits (-90.0 20.0)
  end
  begin
     id 11 
     name lowerback
     direction 0.0104173 0.993624 -0.112266   
     length 2.00527   
     axis 0 0 0   XYZ
    dof rx ry rz
    limits (-20.0 45.0)
           (-30.0 30.0)
           (-30.0 30.0)
  end
  begin
     id 12 
     name upperback
     direction 0.00733149 0.999856 -0.0152913   
     length 2.01385   
     axis 0 0 0   XYZ
    dof rx ry rz
    limits (-20.0 45.0)
           (-30.0 30.0)
           (-30.0 30.0)
  end
  begin
     id 13 
     name thorax
     direction 0.0026304 0.999318 0.036841   
     length 2.03734   
     axis 0 0 0   XYZ
    dof rx ry rz
    limits (-20.0 45.0)
           (-30.0 30.0)
           (-30.0 30.0)
  end
  begin
     id 14 
     name lowerneck
     direction 0.0293154 0.998757 0.0403082   
     length 1.65303   
     axis 0 0 0   XYZ
    dof rx ry rz
    limits (-20.0 45.0)
           (-30.0 30.0)
           (-30.0 30.0)
  end
  begin
     id 15 
     name upperneck
     direction -0.0376619 0.998184 -0.0470083   
     length 1.60926   
     axis 0 0 0   XYZ
    dof rx ry rz
    limits (-20.0 45.0)
           (-30.0 30.0)
           (-30.0 30.0)
  end
  begin
     id 16
     name head
     direction -0.0170133 0.999635 -0.0209778  
     length 1.73625  
     axis 0 0 0   XYZ
    dof rx ry rz
    limits (-20.0 45.0)
           (-30.0 30.0)
           (-30.0 30.0)
  end
  begin
     id 17 
     name lclavicle
     direction 0.919857 0.39181 -0.0186333  
     length 3.75313  
     axis 0 0 0   XYZ
    dof ry rz
    limits (-20.0 10.0)
           (0.0 20.0)
  end
  begin
     id 18 
     name lhumerus
     direction 1 -4.48988e-011 1.44029e-027   
     length 5.49313   
     axis 180 -30 -90   XYZ
    dof rx ry rz
    limits (-60.0 90.0)
           (-90.0 90.0)
           (-90.0 90.0)
  end
  begin
     id 19
     name lradius
     direction 1 -4.48924e-011 7.46281e-027   
     length 3.29037   
     axis 180 -30 -90   XYZ
    dof rx
    limits (-10.0 170.0)
  end
  begin
     id 20
     name lwrist
     direction 1 -4.48955e-011 2.19879e-026   
     length 1.64519   
     axis -1.34358e-014 90 90   XYZ
    dof ry
    limits (-180.0 0.0)
 end
  begin
     id 21 
     name lhand
     direction 1 -4.48978e-011 4.39747e-026   
     length 0.729656   
     axis -2.80598e-014 90 90   XYZ
    dof rx rz
    limits (-90.0 90.0)
           (-45.0 45.0)
  end
  begin
     id 22 
     name lfingers
     direction 1 -4.49071e-011 8.79411e-026   
     length 0.588268   
     axis -5.61193e-014 90 90   XYZ
    dof rx
    limits (0.0 90.0)
  end
  begin
     id 23
     name lthumb
     direction 0.707107 -6.34817e-011 0.707107   
     length 0.844638   
     axis -90 45 -9.86923e-015   XYZ
    dof rx rz
    limits (-45.0 45.0)
           (-45.0 45.0)
  end
  begin
     id 24 
     name rclavicle
     direction -0.919898 0.388279 0.0550233   
     length 3.7171  
     axis 0 0 0   XYZ 
    dof ry rz
    limits (-10.0 20.0)
           (-20.0 0.0)
  end
  begin
     id 25 
     name rhumerus
     direction -1 -4.48968e-011 9.98372e-028  
     length 5.23684   
     axis 180 30 90   XYZ
    dof rx ry rz
    limits (-90.0 60.0)
           (-90.0 90.0)
           (-90.0 90.0)
  end
  begin
     id 26 
     name rradius
     direction -1 -4.48956e-011 1.01023e-026   
     length 3.38251   
     axis 180 30 90   XYZ
    dof rx
    limits (-10.0 170.0)
  end
  begin
     id 27 
     name rwrist
     direction -1 -4.4892e-011 2.19886e-026   
     length 1.69126   
     axis -1.34358e-014 -90 -90   XYZ
    dof ry
    limits (-180.0 0.0)
  end
  begin
     id 28
     name rhand
     direction -1 -4.49024e-011 4.39727e-026   
     length 0.691454   
     axis -2.80598e-014 -90 -90   XYZ
    dof rx rz
    limits (-90.0 90.0)
           (-45.0 45.0)
  end
  begin
     id 29
     name rfingers
     direction -1 -4.49097e-011 8.79388e-026   
     length 0.557468   
     axis -5.61193e-014 -90 -90   XYZ
    dof rx
    limits (0.0 90.0)
  end
  begin
     id 30
     name rthumb
     direction -0.707107 -6.34938e-011 0.707107   
     length 0.800416   
     axis -90 -45 9.86923e-015   XYZ
    dof rx rz
    limits (-45.0 45.0)
           (-45.0 45.0)
  end
:hierarchy
  begin
    root lhipjoint rhipjoint lowerback
    lhipjoint lfemur
    lfemur ltibia
    ltibia lfoot
    lfoot ltoes
    rhipjoint rfemur
    rfemur rtibia
    rtibia rfoot
    rfoot rtoes
    lowerback upperback
    upperback thorax
    thorax lowerneck lclavicle rclavicle
    lowerneck upperneck
    upperneck head
    lclavicle lhumerus
    lhumerus lradius
    lradius lwrist
    lwrist lhand lthumb
    lhand lfingers
    rclavicle rhumerus
    rhumerus rradius
    rradius rwrist
    rwrist rhand rthumb
    rhand rfingers
  end

#!OML:ASF H:\BabyWalks\Project 1\Capture day 1\Session 1\baby.ASF
:FULLY-SPECIFIED
:DEGREES
72
root -31.2375 17.6456 -1.90897 -25.6353 78.2898 -28.805
lowerback 16.6395 -1.04838 -1.81303
upperback 8.00038 -1.14457 2.6743
thorax -0.699754 -0.495759 4.03228
lowerneck -0.182858 5.87536 0.836848
upperneck 0.611459 7.90399 -6.19714
head 0.521923 3.94157 -2.01456
rclavicle 5.29761e-014 1.59028e-014
rhumerus -41.8291 21.0366 -82.1641
rradius 39.4491
rwrist -1.20618
rhand -3.5358 -16.8026
rfingers 7.12502
rthumb 22.1997 -45.5478
lclavicle 5.29761e-014 1.59028e-014
lhumerus -44.7664 2.20753 81.1224
lradius 49.227
lwrist 4.33574
lhand 2.21585 14.5702
lfingers 7.12502
lthumb 27.711 42.5484
rfemur 3.41885 1.57596 27.8121
rtibia 14.3001
rfoot -19.0721 -22.3844
rtoes 1.21492
lfemur -23.6359 6.47328 -13.7669
ltibia 36.2271
lfoot -13.7027 4.44906
ltoes -0.153045
73
root -31.2331 17.6454 -1.9122 -25.5491 78.2567 -28.7139
lowerback 16.633 -1.05572 -1.79669
upperback 7.98846 -1.15291 2.67057
thorax -0.708973 -0.499563 4.02036
lowerneck -0.208456 5.89241 0.849739
upperneck 0.651142 7.92978 -6.23228
head 0.541824 3.95324 -2.02616
rclavicle 1.05356e-014 3.97569e-015
rhumerus -41.8451 21.0934 -82.2202
rradius 39.548
rwrist -1.29141
rhand -3.43794 -16.8016
rfingers 7.12502
rthumb 22.2936 -45.5356
lclavicle 1.05356e-014 3.97569e-015
lhumerus -44.6887 2.13666 81.1337
lradius 49.3532
lwrist 4.45517
lhand 2.19971 14.5691
lfingers 7.12502
lthumb 27.6956 42.5498
rfemur 3.45272 1.62436 27.7987
rtibia 14.2663
rfoot -19.0604 -22.3894
rtoes 1.21542
lfemur -23.6156 6.4824 -13.7781
ltibia 36.2412
lfoot -13.7173 4.4805
ltoes -0.349087
74
root -31.2293 17.6452 -1.91523 -25.4801 78.2249 -28.6382
lowerback 16.6312 -1.06266 -1.77972
upperback 7.97795 -1.1604 2.66894
thorax -0.719161 -0.502887 4.01026
lowerneck -0.226522 5.9101 0.86771
upperneck 0.686599 7.95615 -6.26987
head 0.559517 3.96539 -2.03973
rclavicle 1.07344e-014 1.96797e-014
rhumerus -41.8512 21.1359 -82.2646
rradius 39.6423
rwrist -1.38449
rhand -3.34426 -16.8053
rfingers 7.12502
rthumb 22.3835 -45.5285
lclavicle 1.07344e-014 1.96797e-014
lhumerus -44.6134 2.05172 81.1534
lradius 49.4816
lwrist 4.56991
lhand 2.17117 14.5532
lfingers 7.12502
lthumb 27.6683 42.5382
rfemur 3.48437 1.66959 27.7888
rtibia 14.2367
rfoot -19.0496 -22.3946
rtoes 1.2155
lfemur -23.5965 6.48975 -13.7864
ltibia 36.2555
lfoot -13.7427 4.51021
ltoes -0.547691
75
root -31.2261 17.645 -1.91803 -25.4156 78.1931 -28.5658
lowerback 16.6324 -1.06802 -1.76423
upperback 7.96943 -1.16584 2.66853
thorax -0.728887 -0.505205 4.00202
lowerneck -0.241016 5.92878 0.891241
upperneck 0.720066 7.98373 -6.30952
head 0.5764 3.97825 -2.05506
rclavicle 3.15074e-014 2.5842e-015
rhumerus -41.8476 21.1651 -82.2982
rradius 39.7335
rwrist -1.48839
rhand -3.2566 -16.8176
rfingers 7.12502
rthumb 22.4677 -45.5306
lclavicle 3.15074e-014 2.5842e-015
lhumerus -44.5407 1.95594 81.1793
lradius 49.6123
lwrist 4.67673
lhand 2.13407 14.5217
lfingers 7.12502
lthumb 27.6328 42.5124
rfemur 3.51277 1.71301 27.7807
rtibia 14.2116
rfoot -19.0395 -22.4001
rtoes 1.21244
lfemur -23.5776 6.49402 -13.7921
ltibia 36.2699
lfoot -13.7584 4.54347
ltoes -0.700916
76
root -31.2234 17.6449 -1.92059 -25.3438 78.1587 -28.4851
lowerback 16.6354 -1.07077 -1.75087
upperback 7.96276 -1.16801 2.66889
thorax -0.737799 -0.505947 3.99529
lowerneck -0.253222 5.94853 0.918449
upperneck 0.754084 8.01274 -6.35003
head 0.593359 3.99184 -2.07134
rclavicle -8.94531e-016 1.47101e-014
rhumerus -41.8372 21.1827 -82.3225
rradius 39.8238
rwrist -1.60662
rhand -3.18136 -16.8383
rfingers 7.12502
rthumb 22.5399 -45.5426
lclavicle -8.94531e-016 1.47101e-014
lhumerus -44.4723 1.85208 81.2105
lradius 49.7459
lwrist 4.77764
lhand 2.09136 14.4701
lfingers 7.12502
lthumb 27.592 42.4673
rfemur 3.53723 1.75396 27.7724
rtibia 14.1929
rfoot -19.03 -22.4024
rtoes 1.20559
lfemur -23.5574 6.49721 -13.7962
ltibia 36.2833
lfoot -13.7607 4.58134
ltoes -0.795248
77
root -31.2213 17.6447 -1.92292 -25.2721 78.1243 -28.4033
lowerback 16.6428 -1.07197 -1.74031
upperback 7.95791 -1.16837 2.67024
thorax -0.747073 -0.505817 3.991
lowerneck -0.265902 5.96925 0.949971
upperneck 0.789482 8.04317 -6.39297
head 0.61123 4.0061 -2.0891
rclavicle -6.36111e-015 6.55989e-015
rhumerus -41.8172 21.1907 -82.3393
rradius 39.9086
rwrist -1.73633
rhand -3.12299 -16.866
rfingers 7.12502
rthumb 22.5959 -45.5635
lclavicle -6.36111e-015 6.55989e-015
lhumerus -44.4074 1.74406 81.2444
lradius 49.8816
lwrist 4.86971
lhand 2.05189 14.402
lfingers 7.12502
lthumb 27.5542 42.4053
rfemur 3.55721 1.7936 27.7651
rtibia 14.1817
rfoot -19.0245 -22.4042
rtoes 1.20489
lfemur -23.5367 6.4993 -13.7995
ltibia 36.2947
lfoot -13.7877 4.61592
ltoes -0.936436
78
root -31.2199 17.6446 -1.92505 -25.1783 78.0918 -28.2985
lowerback 16.653 -1.07101 -1.73622
upperback 7.95526 -1.16672 2.67095
thorax -0.755435 -0.504814 3.98943
lowerneck -0.280709 5.99023 0.984908
upperneck 0.828103 8.07414 -6.43677
head 0.630729 4.02053 -2.10759
rclavicle 6.06293e-015 5.42682e-014
rhumerus -41.7922 21.1911 -82.3499
rradius 39.9939
rwrist -1.87589
rhand -3.08434 -16.8938
rfingers 7.12502
rthumb 22.633 -45.5868
lclavicle 6.06293e-015 5.42682e-014
lhumerus -44.3465 1.63353 81.2797
lradius 50.0199
lwrist 4.95006
lhand 2.02034 14.3148
lfingers 7.12502
lthumb 27.524 42.3229
rfemur 3.57169 1.82932 27.7524
rtibia 14.179
rfoot -19.0198 -22.4041
rtoes 1.19943
lfemur -23.5153 6.50115 -13.8079
ltibia 36.3023
lfoot -13.7964 4.65406
ltoes -1.03884
79
root -31.219 17.6446 -1.92704 -25.0559 78.0616 -28.165
lowerback 16.6656 -1.06818 -1.73891
upperback 7.95418 -1.16355 2.67025
thorax -0.763383 -0.503186 3.99001
lowerneck -0.297723 6.01101 1.02104
upperneck 0.868299 8.10493 -6.4795
head 0.651139 4.03479 -2.12585
rclavicle -5.36719e-015 1.70955e-014
rhumerus -41.766 21.189 -82.3571
rradius 40.083
rwrist -2.02301
rhand -3.06234 -16.9291
rfingers 7.12502
rthumb 22.6541 -45.6195
lclavicle -5.36719e-015 1.70955e-014
lhumerus -44.2906 1.52413 81.3149
lradius 50.1638
lwrist 5.0189
lhand 2.01047 14.2143
lfingers 7.12502
lthumb 27.5146 42.2239
rfemur 3.57822 1.85911 27.7324
rtibia 14.1874
rfoot -19.018 -22.3995
rtoes 1.19518
lfemur -23.4925 6.50256 -13.8225
ltibia 36.3047
lfoot -13.7981 4.69257
ltoes -1.12837
80
root -31.2184 17.6447 -1.92887 -24.8977 78.0264 -27.9986
lowerback 16.6731 -1.06141 -1.74712
upperback 7.95533 -1.15609 2.66811
thorax -0.76649 -0.499641 3.99135
lowerneck -0.316081 6.0306 1.05469
upperneck 0.909925 8.13411 -6.51642
head 0.671814 4.04819 -2.14178
rclavicle -1.88845e-014 1.03368e-014
rhumerus -41.7388 21.1848 -82.3616
rradius 40.1738
rwrist -2.17187
rhand -3.05725 -16.9661
rfingers 7.12502
rthumb 22.659 -45.6559
lclavicle -1.88845e-014 1.03368e-014
lhumerus -44.2387 1.41684 81.3483
lradius 50.3102
lwrist 5.07271
lhand 2.02788 14.1075
lfingers 7.12502
lthumb 27.5312 42.1144
rfemur 3.57411 1.88687 27.7071
rtibia 14.2071
rfoot -19.0159 -22.3881
rtoes 1.18621
lfemur -23.47 6.51228 -13.8414
ltibia 36.3014
lfoot -13.8017 4.72981
ltoes -1.21202
81
root -31.2183 17.6449 -1.93059 -24.7117 77.9935 -27.8062
lowerback 16.6804 -1.05319 -1.76208
upperback 7.95738 -1.14773 2.66456
thorax -0.768453 -0.495819 3.99486
lowerneck -0.33267 6.04877 1.08549
upperneck 0.948876 8.16114 -6.54787
head 0.690904 4.06059 -2.15559
rclavicle 3.76697e-014 1.78906e-014
rhumerus -41.712 21.1832 -82.3657
rradius 40.2652
rwrist -2.31968
rhand -3.06395 -17.0083
rfingers 7.12502
rthumb 22.6526 -45.6989
lclavicle 3.76697e-014 1.78906e-014
lhumerus -44.1934 1.31489 81.3784
lradius 50.4602
lwrist 5.10503
lhand 2.08413 13.993
lfingers 7.12502
lthumb 27.585 41.9914
rfemur 3.56071 1.90965 27.6748
rtibia 14.2369
rfoot -19.017 -22.3717
rtoes 1.171
lfemur -23.4493 6.52435 -13.8673
ltibia 36.2925
lfoot -13.8056 4.76458
ltoes -1.30546
82
root -31.2187 17.6451 -1.93218 -24.5124 77.9594 -27.6026
lowerback 16.6881 -1.04349 -1.77939
upperback 7.95942 -1.13782 2.6601
thorax -0.770776 -0.491269 3.99851
lowerneck -0.347695 6.06499 1.10845
upperneck 0.986789 8.18526 -6.56734
head 0.708369 4.07158 -2.1643
rclavicle 3.1408e-014 -1.96797e-014
rhumerus -41.6883 21.1853 -82.3708
rradius 40.3572
rwrist -2.46415
rhand -3.07612 -17.0628
rfingers 7.12502
rthumb 22.6409 -45.7548
lclavicle 3.1408e-014 -1.96797e-014
lhumerus -44.1548 1.21617 81.4049
lradius 50.6105
lwrist 5.11748
lhand 2.18729 13.8654
lfingers 7.12502
lthumb 27.6837 41.8479
rfemur 3.53868 1.93406 27.641
rtibia 14.2745
rfoot -19.0179 -22.3553
rtoes 1.15357
lfemur -23.4308 6.53998 -13.8949
ltibia 36.2796
lfoot -13.8014 4.79757
ltoes -1.38284
83
root -31.2195 17.6453 -1.93365 -24.3014 77.9256 -27.3894
lowerback 16.6961 -1.03268 -1.79895
upperback 7.96154 -1.12683 2.65474
thorax -0.773181 -0.486225 4.00231
lowerneck -0.358044 6.07943 1.12625
upperneck 1.01942 8.20648 -6.57821
head 0.72262 4.08132 -2.16964
rclavicle 4.52235e-014 9.54166e-015
rhumerus -41.6676 21.193 -82.378
rradius 40.4482
rwrist -2.6063
rhand -3.08909 -17.1291
rfingers 7.12502
rthumb 22.6285 -45.8226
lclavicle 4.52235e-014 9.54166e-015
lhumerus -44.1238 1.12159 81.4271
lradius 50.762
lwrist 5.11135
lhand 2.34026 13.7211
lfingers 7.12502
lthumb 27.83 41.6801
rfemur 3.50923 1.95555 27.605
rtibia 14.3188
rfoot -19.0212 -22.3353
rtoes 1.13196
lfemur -23.415 6.55652 -13.924
ltibia 36.2635
lfoot -13.7979 4.82709
ltoes -1.45938
84
root -31.2209 17.6455 -1.93505 -24.0965 77.889 -27.1843
lowerback 16.7051 -1.02071 -1.81647
upperback 7.96343 -1.11401 2.64981
thorax -0.776554 -0.480204 4.00512
lowerneck -0.362253 6.09148 1.14057
upperneck 1.04542 8.22398 -6.58322
head 0.733144 4.08945 -2.17286
rclavicle -3.33958e-014 1.2921e-014
rhumerus -41.6528 21.2089 -82.3882
rradius 40.539
rwrist -2.75054
rhand -3.10151 -17.2035
rfingers 7.12502
rthumb 22.6165 -45.8985
lclavicle -3.33958e-014 1.2921e-014
lhumerus -44.0995 1.02801 81.4468
lradius 50.9102
lwrist 5.09213
lhand 2.54199 13.5591
lfingers 7.12502
lthumb 28.0228 41.4867
rfemur 3.47391 1.97764 27.5721
rtibia 14.3667
rfoot -19.0247 -22.3147
rtoes 1.10633
lfemur -23.4023 6.57485 -13.9496
ltibia 36.2463
lfoot -13.796 4.85458
ltoes -1.54366
85
root -31.2227 17.6456 -1.93635 -23.9102 77.8517 -26.9995
lowerback 16.7173 -1.00879 -1.8295
upperback 7.96444 -1.10058 2.64528
thorax -0.782721 -0.473704 4.00576
lowerneck -0.361745 6.10083 1.15442
upperneck 1.06528 8.23741 -6.5852
head 0.740601 4.09575 -2.17536
rclavicle -1.09332e-015 1.59028e-014
rhumerus -41.6415 21.2325 -82.4027
rradius 40.6255
rwrist -2.89865
rhand -3.10533 -17.2823
rfingers 7.12502
rthumb 22.6129 -45.9777
lclavicle -1.09332e-015 1.59028e-014
lhumerus -44.0806 0.934297 81.4635
lradius 51.0514
lwrist 5.06644
lhand 2.79402 13.3817
lfingers 7.12502
lthumb 28.2637 41.2697
rfemur 3.43473 1.99989 27.5445
rtibia 14.4154
rfoot -19.0292 -22.2951
rtoes 1.07951
lfemur -23.3938 6.5942 -13.9706
ltibia 36.229
lfoot -13.7872 4.88003
ltoes -1.63079
86
root -31.2251 17.6457 -1.93758 -23.7324 77.813 -26.8248
lowerback 16.7308 -0.996173 -1.83858
upperback 7.9649 -1.08569 2.64049
thorax -0.79038 -0.466331 4.00367
lowerneck -0.356007 6.10786 1.16955
upperneck 1.07907 8.24733 -6.58612
head 0.745114 4.10053 -2.17807
rclavicle -6.95746e-016 -4.25399e-014
rhumerus -41.6378 21.2659 -82.4223
rradius 40.7121
rwrist -3.05326
rhand -3.09522 -17.3654
rfingers 7.12502
rthumb 22.6226 -46.0597
lclavicle -6.95746e-016 -4.25399e-014
lhumerus -44.0684 0.837735 81.4793
lradius 51.1854
lwrist 5.04458
lhand 3.08822 13.1897
lfingers 7.12502
lthumb 28.5449 41.0308
rfemur 3.39304 2.02007 27.5192
rtibia 14.4624
rfoot -19.0317 -22.2727
rtoes 1.05178
lfemur -23.3884 6.61338 -13.9883
ltibia 36.2124
lfoot -13.7794 4.90371
ltoes -1.71381
